<?xml version="1.0" encoding="utf-8"?>
<!-- Generator: Adobe Illustrator 16.0.0, SVG Export Plug-In . SVG Version: 6.00 Build 0)  -->
<!DOCTYPE svg PUBLIC "-//W3C//DTD SVG 1.1//EN" "http://www.w3.org/Graphics/SVG/1.1/DTD/svg11.dtd">
<svg version="1.1" id="Layer_1" xmlns="http://www.w3.org/2000/svg" xmlns:xlink="http://www.w3.org/1999/xlink" x="0px" y="0px"
	 width="100px" height="100px" viewBox="0 0 100 100" style="enable-background:new 0 0 100 100;" xml:space="preserve">
<style type="text/css">
<![CDATA[
	.st0{fill:none;stroke:#000000;stroke-width:3;stroke-miterlimit:5;}
	.st1{fill:none;stroke:#000000;stroke-width:3;stroke-linejoin:round;stroke-miterlimit:5;}
	.st2{fill:none;stroke:#000000;stroke-width:3;stroke-miterlimit:10;}
]]>
</style>
<image style="display:none;overflow:visible;" width="1744" height="4161" xlink:href="mock up Jpg.jpg"  transform="matrix(1 0 0 1 -918.25 -854.041)">
</image>
<path class="st2" d="M86.9,27.3c-5.2-12.5-15.7-8.7-15.7-8.7c16.3,13.2-2.6,19.9-2.6,19.9H50.3h-0.6H31.4c0,0-18.9-6.6-2.6-19.9
	c0,0-10.4-3.8-15.7,8.7c0,0-6.3,19.9,20.6,27.9c0,0,5.6,23.3,8,26.8h8h0.6h8c2.4-3.5,8-26.8,8-26.8C93.2,47.1,86.9,27.3,86.9,27.3z"
	/>
</svg>
