<?xml version="1.0" encoding="utf-8"?>
<!-- Generator: Adobe Illustrator 16.0.0, SVG Export Plug-In . SVG Version: 6.00 Build 0)  -->
<!DOCTYPE svg PUBLIC "-//W3C//DTD SVG 1.1//EN" "http://www.w3.org/Graphics/SVG/1.1/DTD/svg11.dtd">
<svg version="1.1" id="Layer_1" xmlns="http://www.w3.org/2000/svg" xmlns:xlink="http://www.w3.org/1999/xlink" x="0px" y="0px"
	 width="100px" height="100px" viewBox="0 0 100 100" style="enable-background:new 0 0 100 100;" xml:space="preserve">
<style type="text/css">
<![CDATA[
	.st0{fill:none;stroke:#000000;stroke-width:3;stroke-miterlimit:5;}
	.st1{fill:none;stroke:#000000;stroke-width:3;stroke-linejoin:round;stroke-miterlimit:5;}
	.st2{fill:none;stroke:#000000;stroke-width:3;stroke-miterlimit:10;}
]]>
</style>
<image style="display:none;overflow:visible;" width="1744" height="4161" xlink:href="mock up Jpg.jpg"  transform="matrix(1 0 0 1 -1158.25 -974.041)">
</image>
<g>
	<path class="st0" d="M87.5,50c0,20.7-16.8,37.5-37.5,37.5c-20.7,0-37.5-16.8-37.5-37.5c0-20.7,16.8-37.5,37.5-37.5
		C70.7,12.5,87.5,29.3,87.5,50z"/>
	<path class="st0" d="M68.5,50c0,10.5-8.6,19.1-19.1,19.1c-10.5,0-19.1-8.5-19.1-19.1s8.5-19.1,19.1-19.1
		C59.9,30.9,68.5,39.5,68.5,50z"/>
	<path class="st0" d="M18.5,29.7l14.8,10.2c0,0,4.2-6.1,8.6-7.4l-8.7-16.1C33.1,16.5,21.9,23,18.5,29.7z"/>
	<path class="st0" d="M69.1,17.9L59.4,33c0,0,6.2,4,7.6,8.4l15.8-9.2C82.8,32.2,75.9,21.1,69.1,17.9z"/>
	<path class="st0" d="M82.8,66.9l-15.9-8.4c0,0-3.5,6.5-7.7,8.3l10.5,15C69.7,81.7,80.2,73.9,82.8,66.9z"/>
	<path class="st0" d="M33.8,83.5l7.6-16.3c0,0-6.7-3.1-8.7-7.2L19.4,71.7C19.4,71.7,26.7,81.2,33.8,83.5z"/>
</g>
</svg>
