<?xml version="1.0" encoding="utf-8"?>
<!-- Generator: Adobe Illustrator 16.0.0, SVG Export Plug-In . SVG Version: 6.00 Build 0)  -->
<!DOCTYPE svg PUBLIC "-//W3C//DTD SVG 1.1//EN" "http://www.w3.org/Graphics/SVG/1.1/DTD/svg11.dtd">
<svg version="1.1" id="Layer_1" xmlns="http://www.w3.org/2000/svg" xmlns:xlink="http://www.w3.org/1999/xlink" x="0px" y="0px"
	 width="100px" height="100px" viewBox="0 0 100 100" style="enable-background:new 0 0 100 100;" xml:space="preserve">
<style type="text/css">
<![CDATA[
	.st0{fill:none;stroke:#000000;stroke-width:3;stroke-miterlimit:5;}
	.st1{fill:none;stroke:#000000;stroke-width:3;stroke-linejoin:round;stroke-miterlimit:5;}
	.st2{fill:none;stroke:#000000;stroke-width:3;stroke-miterlimit:10;}
]]>
</style>
<image style="display:none;overflow:visible;" width="1744" height="4161" xlink:href="mock up Jpg.jpg"  transform="matrix(1 0 0 1 -1038.25 -854.041)">
</image>
<g>
	<path class="st2" d="M44,32.7c0,5.2-4.2,9.5-9.5,9.5c-5.2,0-9.5-4.2-9.5-9.5c0-5.2,4.2-9.5,9.5-9.5C39.7,23.2,44,27.5,44,32.7z"/>
	<polyline class="st2" points="21,71.5 33.8,58.6 43.5,68.3 	"/>
	<polyline class="st2" points="45.8,77.3 68.5,54.6 79.1,65.1 	"/>
	<path class="st1" d="M87.5,83.8c0,2.1-1.7,3.7-3.7,3.7H16.2c-2.1,0-3.7-1.7-3.7-3.7V16.2c0-2.1,1.7-3.7,3.7-3.7h67.6
		c2.1,0,3.7,1.7,3.7,3.7V83.8z"/>
</g>
</svg>
