<?xml version="1.0" encoding="utf-8"?>
<!-- Generator: Adobe Illustrator 16.0.0, SVG Export Plug-In . SVG Version: 6.00 Build 0)  -->
<!DOCTYPE svg PUBLIC "-//W3C//DTD SVG 1.1//EN" "http://www.w3.org/Graphics/SVG/1.1/DTD/svg11.dtd">
<svg version="1.1" id="Layer_1" xmlns="http://www.w3.org/2000/svg" xmlns:xlink="http://www.w3.org/1999/xlink" x="0px" y="0px"
	 width="100px" height="100px" viewBox="0 0 100 100" style="enable-background:new 0 0 100 100;" xml:space="preserve">
<style type="text/css">
<![CDATA[
	.st0{fill:none;stroke:#000000;stroke-width:3;stroke-miterlimit:5;}
	.st1{fill:none;stroke:#000000;stroke-width:3;stroke-linejoin:round;stroke-miterlimit:5;}
	.st2{fill:none;stroke:#000000;stroke-width:3;stroke-miterlimit:10;}
]]>
</style>
<image style="display:none;overflow:visible;" width="1744" height="4161" xlink:href="mock up Jpg.jpg"  transform="matrix(1 0 0 1 -1158.25 -854.041)">
</image>
<g>
	<path class="st2" d="M87.1,17.5c-13.9,0-37.1-5.1-37.1-5.1s-23.2,5.1-37.1,5.1c0,0-6.9,59.7,37.1,70C94.1,77.2,87.1,17.5,87.1,17.5
		z"/>
	<path class="st2" d="M76.1,25.2c-9.8,0-26.1-3.9-26.1-3.9s-16.3,3.9-26.1,3.9c0,0-4.9,45.3,26.1,53.1C81,70.4,76.1,25.2,76.1,25.2z
		"/>
</g>
</svg>
